<svg width="24" height="25" viewBox="0 0 24 25" fill="none" xmlns="http://www.w3.org/2000/svg">
<rect width="24" height="25" fill="#E5E5E5"/>
<g id="Login" clip-path="url(#clip0_0_1)">
<rect width="375" height="812" transform="translate(-32 -598)" fill="white"/>
<g id="Login With Google Button" filter="url(#filter0_d_0_1)">
<rect x="-15.5" y="-80.5" width="342" height="56" rx="4.5" stroke="#EBF0FF"/>
</g>
<g id="Login With Facebook Button" filter="url(#filter1_d_0_1)">
<rect x="-15.5" y="-15.5" width="342" height="56" rx="4.5" stroke="#EBF0FF"/>
<g id="Other Icon/Facebook">
<path id="Vector" d="M18 2.5H15C13.6739 2.5 12.4021 3.02678 11.4645 3.96447C10.5268 4.90215 10 6.17392 10 7.5V10.5H7V14.5H10V22.5H14V14.5H17L18 10.5H14V7.5C14 7.23478 14.1054 6.98043 14.2929 6.79289C14.4804 6.60536 14.7348 6.5 15 6.5H18V2.5Z" fill="#4092FF"/>
</g>
</g>
</g>
<defs>
<filter id="filter0_d_0_1" x="-46" y="-101" width="403" height="117" filterUnits="userSpaceOnUse" color-interpolation-filters="sRGB">
<feFlood flood-opacity="0" result="BackgroundImageFix"/>
<feColorMatrix in="SourceAlpha" type="matrix" values="0 0 0 0 0 0 0 0 0 0 0 0 0 0 0 0 0 0 127 0" result="hardAlpha"/>
<feOffset dy="10"/>
<feGaussianBlur stdDeviation="15"/>
<feColorMatrix type="matrix" values="0 0 0 0 0.25098 0 0 0 0 0.74902 0 0 0 0 1 0 0 0 0.24 0"/>
<feBlend mode="normal" in2="BackgroundImageFix" result="effect1_dropShadow_0_1"/>
<feBlend mode="normal" in="SourceGraphic" in2="effect1_dropShadow_0_1" result="shape"/>
</filter>
<filter id="filter1_d_0_1" x="-46" y="-36" width="403" height="117" filterUnits="userSpaceOnUse" color-interpolation-filters="sRGB">
<feFlood flood-opacity="0" result="BackgroundImageFix"/>
<feColorMatrix in="SourceAlpha" type="matrix" values="0 0 0 0 0 0 0 0 0 0 0 0 0 0 0 0 0 0 127 0" result="hardAlpha"/>
<feOffset dy="10"/>
<feGaussianBlur stdDeviation="15"/>
<feColorMatrix type="matrix" values="0 0 0 0 0.25098 0 0 0 0 0.74902 0 0 0 0 1 0 0 0 0.24 0"/>
<feBlend mode="normal" in2="BackgroundImageFix" result="effect1_dropShadow_0_1"/>
<feBlend mode="normal" in="SourceGraphic" in2="effect1_dropShadow_0_1" result="shape"/>
</filter>
<clipPath id="clip0_0_1">
<rect width="375" height="812" fill="white" transform="translate(-32 -598)"/>
</clipPath>
</defs>
</svg>
